<?xml version="1.0" encoding="UTF-8"?>
<!DOCTYPE svg PUBLIC "-//W3C//DTD SVG 1.1//EN" "http://www.w3.org/Graphics/SVG/1.1/DTD/svg11.dtd">
<svg viewBox="0 0 602 602" xmlns="http://www.w3.org/2000/svg" version="1.1" width="602px" height="602px" style="shape-rendering:geometricPrecision; text-rendering:geometricPrecision; image-rendering:optimizeQuality; fill-rule:evenodd; clip-rule:evenodd" xmlns:xlink="http://www.w3.org/1999/xlink">
<g><path style="opacity:0.981" fill="#000000" d="M 336.5,8.5 C 386.919,5.6177 423.419,26.6177 446,71.5C 456.297,94.2604 456.963,117.26 448,140.5C 434.502,171.838 418.169,201.505 399,229.5C 385.597,249.803 371.097,269.303 355.5,288C 352.912,289.686 350.245,289.853 347.5,288.5C 322.364,256.901 299.198,223.901 278,189.5C 266.484,169.803 257.151,149.136 250,127.5C 243.659,82.8289 259.159,47.9956 296.5,23C 309.061,15.6499 322.394,10.8166 336.5,8.5 Z M 343.5,65.5 C 372.583,64.447 390.083,78.1137 396,106.5C 396.095,134.075 382.595,150.575 355.5,156C 328.082,156.373 311.248,143.207 305,116.5C 304.323,89.1502 317.156,72.1502 343.5,65.5 Z"/></g>
<g><path style="opacity:0.968" fill="#000000" d="M 225.5,98.5 C 229.167,98.5 232.833,98.5 236.5,98.5C 235.295,111.323 236.295,123.99 239.5,136.5C 178.48,143.026 135.646,174.36 111,230.5C 89.3604,296.448 104.194,352.615 155.5,399C 203.795,434.703 255.795,441.037 311.5,418C 365.574,389.898 394.24,345.231 397.5,284C 396.746,273.451 395.912,262.951 395,252.5C 404.247,239.674 413.247,226.674 422,213.5C 441.284,261.069 441.284,308.736 422,356.5C 397.831,410.662 357.331,446.496 300.5,464C 221.737,482.299 155.904,461.133 103,400.5C 59.7238,341.556 51.3905,277.889 78,209.5C 108.099,147.197 157.266,110.197 225.5,98.5 Z"/></g>
<g><path style="opacity:0.959" fill="#000000" d="M 240.5,147.5 C 242.144,147.286 243.644,147.62 245,148.5C 254.559,171.456 266.059,193.289 279.5,214C 251.169,214.5 222.835,214.667 194.5,214.5C 199.753,190.818 211.086,170.652 228.5,154C 232.434,151.536 236.434,149.369 240.5,147.5 Z"/></g>
<g><path style="opacity:0.941" fill="#000000" d="M 213.5,150.5 C 215.028,150.517 215.528,151.184 215,152.5C 200.136,170.388 189.303,190.555 182.5,213C 165.167,213.667 147.833,213.667 130.5,213C 150.538,181.987 178.204,161.153 213.5,150.5 Z"/></g>
<g><path style="opacity:0.958" fill="#000000" d="M 125.5,225.5 C 143.833,225.5 162.167,225.5 180.5,225.5C 177.18,243.337 175.513,261.337 175.5,279.5C 154.5,279.5 133.5,279.5 112.5,279.5C 112.515,260.415 116.849,242.415 125.5,225.5 Z"/></g>
<g><path style="opacity:0.966" fill="#000000" d="M 191.5,225.5 C 223.168,225.333 254.835,225.5 286.5,226C 294.667,237.5 302.833,249 311,260.5C 312.37,266.742 312.87,273.075 312.5,279.5C 270.167,279.5 227.833,279.5 185.5,279.5C 186.111,261.337 188.111,243.337 191.5,225.5 Z"/></g>
<g><path style="opacity:0.679" fill="#000000" d="M 383.5,266.5 C 384.931,266.881 385.764,267.881 386,269.5C 386.498,272.482 386.665,275.482 386.5,278.5C 383.102,278.82 379.768,278.487 376.5,277.5C 379.281,274.066 381.614,270.399 383.5,266.5 Z"/></g>
<g><path style="opacity:0.959" fill="#000000" d="M 112.5,288.5 C 133.5,288.5 154.5,288.5 175.5,288.5C 175.485,306.664 177.151,324.664 180.5,342.5C 162.164,342.667 143.83,342.5 125.5,342C 117.638,325.053 113.305,307.219 112.5,288.5 Z"/></g>
<g><path style="opacity:0.986" fill="#000000" d="M 186.5,289.5 C 228.5,289.5 270.5,289.5 312.5,289.5C 311.962,307.342 309.962,325.009 306.5,342.5C 268.5,342.5 230.5,342.5 192.5,342.5C 188.457,325.073 186.457,307.406 186.5,289.5 Z"/></g>
<g><path style="opacity:0.965" fill="#000000" d="M 324.5,289.5 C 327.85,289.335 331.183,289.502 334.5,290C 345.167,304 355.833,304 366.5,290C 373.158,289.5 379.825,289.334 386.5,289.5C 385.534,307.862 381.201,325.362 373.5,342C 355.17,342.5 336.836,342.667 318.5,342.5C 321.524,324.953 323.524,307.287 324.5,289.5 Z"/></g>
<g><path style="opacity:0.939" fill="#000000" d="M 131.5,354.5 C 149.005,353.173 166.671,353.173 184.5,354.5C 190.323,377.65 200.99,398.15 216.5,416C 179.646,407.318 151.313,386.818 131.5,354.5 Z"/></g>
<g><path style="opacity:0.968" fill="#000000" d="M 195.5,353.5 C 231.5,353.5 267.5,353.5 303.5,353.5C 299.438,372.287 291.605,389.287 280,404.5C 263.693,423.221 245.526,425.387 225.5,411C 210.646,394.463 200.646,375.296 195.5,353.5 Z"/></g>
<g><path style="opacity:0.941" fill="#000000" d="M 315.5,354.5 C 332.837,354.333 350.17,354.5 367.5,355C 347.361,386.293 319.361,407.127 283.5,417.5C 282.479,416.998 282.312,416.332 283,415.5C 293.849,403.816 302.182,390.483 308,375.5C 310.607,368.51 313.107,361.51 315.5,354.5 Z"/></g>
<g><path style="opacity:0.977" fill="#000000" d="M 432.5,412.5 C 438.831,412.332 444.498,414.165 449.5,418C 484.361,452.528 518.861,487.361 553,522.5C 557.579,530.47 557.579,538.47 553,546.5C 539.167,560.333 525.333,574.167 511.5,588C 502.431,593.067 493.765,592.567 485.5,586.5C 451.847,552.347 418.014,518.347 384,484.5C 376.667,474.5 376.667,464.5 384,454.5C 388.5,450 393,445.5 397.5,441C 393.033,437.535 388.867,433.702 385,429.5C 386.748,425.717 389.414,422.384 393,419.5C 397.649,423.314 402.149,427.314 406.5,431.5C 411.319,427.182 415.985,422.682 420.5,418C 424.227,415.299 428.227,413.465 432.5,412.5 Z"/></g>
</svg>
