<?xml version="1.0" encoding="UTF-8"?>
<!DOCTYPE svg PUBLIC "-//W3C//DTD SVG 1.1//EN" "http://www.w3.org/Graphics/SVG/1.1/DTD/svg11.dtd">
<svg viewBox="0 0 551 551" xmlns="http://www.w3.org/2000/svg" version="1.1" width="551px" height="551px" style="shape-rendering:geometricPrecision; text-rendering:geometricPrecision; image-rendering:optimizeQuality; fill-rule:evenodd; clip-rule:evenodd" xmlns:xlink="http://www.w3.org/1999/xlink">
<g><path style="opacity:0.977" fill="#000000" d="M 74.5,23.5 C 95.5026,23.3334 116.503,23.5 137.5,24C 147.575,28.6504 151.408,36.4838 149,47.5C 147.167,53.3333 143.333,57.1667 137.5,59C 118.41,59.0247 99.4101,59.6914 80.5,61C 79.1068,62.1711 78.2735,63.6711 78,65.5C 77.6667,83.5 77.3333,101.5 77,119.5C 72.3496,129.575 64.5162,133.408 53.5,131C 45.3701,127.595 41.0368,121.428 40.5,112.5C 40.1159,93.6499 40.6159,74.6499 42,55.5C 46.7897,38.5425 57.623,27.8759 74.5,23.5 Z"/></g>
<g><path style="opacity:0.984" fill="#000000" d="M 437.5,23.5 C 458.503,23.3334 479.503,23.5 500.5,24C 518.438,28.2712 529.271,39.4379 533,57.5C 533.667,78.1667 533.667,98.8333 533,119.5C 528.35,129.575 520.516,133.408 509.5,131C 503.667,129.167 499.833,125.333 498,119.5C 497.667,101.5 497.333,83.5 497,65.5C 496.727,63.6711 495.893,62.1711 494.5,61C 475.59,59.6914 456.59,59.0247 437.5,59C 427.425,54.3496 423.592,46.5162 426,35.5C 428.019,29.6498 431.852,25.6498 437.5,23.5 Z"/></g>
<g><path style="opacity:0.943" fill="#000000" d="M 274.5,80.5 C 371.662,78.4997 432.496,124.5 457,218.5C 459.232,226.592 456.232,231.259 448,232.5C 445.186,232.592 442.853,231.592 441,229.5C 435.621,209.743 428.288,190.743 419,172.5C 390.539,125.668 348.706,101.002 293.5,98.5C 238.438,101.096 195.604,125.096 165,170.5C 157.155,183.864 151.822,198.197 149,213.5C 143.631,219.698 137.964,220.032 132,214.5C 131.296,212.722 130.796,210.888 130.5,209C 137.721,174.218 154.721,145.218 181.5,122C 208.592,99.4552 239.592,85.6218 274.5,80.5 Z"/></g>
<g><path style="opacity:0.945" fill="#000000" d="M 287.5,129.5 C 332.796,130.054 367.296,149.387 391,187.5C 403.325,214.135 410.325,242.135 412,271.5C 413.725,298.389 412.059,325.056 407,351.5C 403.044,357.759 397.878,358.926 391.5,355C 390.115,352.848 389.115,350.515 388.5,348C 397.242,301.852 394.742,256.352 381,211.5C 364.79,172.787 335.623,151.787 293.5,148.5C 252.773,151.107 223.94,170.774 207,207.5C 198.872,234.165 196.705,261.331 200.5,289C 199.923,299.073 194.923,302.406 185.5,299C 184.333,297.833 183.167,296.667 182,295.5C 178.911,273.208 178.911,251.208 182,229.5C 192.691,170.308 227.858,136.975 287.5,129.5 Z"/></g>
<g><path style="opacity:0.944" fill="#000000" d="M 280.5,182.5 C 306.065,179.868 325.899,189.201 340,210.5C 354.837,236.521 361.171,264.521 359,294.5C 354.449,301.471 349.116,302.138 343,296.5C 342.027,294.608 341.36,292.608 341,290.5C 340.807,272.007 337.807,254.007 332,236.5C 327.148,223.327 318.981,212.827 307.5,205C 287.721,197.579 270.554,201.745 256,217.5C 253.356,222.621 250.856,227.788 248.5,233C 241.769,236.755 236.603,235.255 233,228.5C 235.212,211.283 244.045,198.449 259.5,190C 266.435,186.969 273.435,184.469 280.5,182.5 Z"/></g>
<g><path style="opacity:0.943" fill="#000000" d="M 287.5,229.5 C 293.382,229.214 297.215,231.881 299,237.5C 313.82,311.749 299.153,379.416 255,440.5C 249.81,446.688 244.31,452.521 238.5,458C 227.702,459.537 223.535,455.037 226,444.5C 265.36,401.118 285.527,349.952 286.5,291C 285.657,273.919 283.657,256.919 280.5,240C 280.324,234.699 282.658,231.199 287.5,229.5 Z"/></g>
<g><path style="opacity:0.938" fill="#000000" d="M 135.5,237.5 C 139.13,237.765 142.297,239.098 145,241.5C 148.075,267.934 145.741,293.934 138,319.5C 131.016,339.142 118.849,354.642 101.5,366C 89,369.5 84.5,365 88,352.5C 101.945,343.219 112.278,330.886 119,315.5C 122.434,306.098 124.767,296.432 126,286.5C 127.124,272.526 127.791,258.526 128,244.5C 129.767,241.228 132.267,238.895 135.5,237.5 Z"/></g>
<g><path style="opacity:0.942" fill="#000000" d="M 236.5,253.5 C 241.382,253.175 244.882,255.175 247,259.5C 255.646,303.978 249.646,346.312 229,386.5C 218.736,403.77 205.903,418.937 190.5,432C 178.756,435.582 173.923,431.416 176,419.5C 208.207,392.762 226.54,358.428 231,316.5C 231.089,297.151 230.756,277.818 230,258.5C 231.805,256.174 233.972,254.508 236.5,253.5 Z"/></g>
<g><path style="opacity:0.942" fill="#000000" d="M 451.5,253.5 C 456.739,252.959 460.572,254.959 463,259.5C 467.004,304.449 463.338,348.782 452,392.5C 451.283,398.716 447.783,402.049 441.5,402.5C 435.745,401.663 432.745,398.33 432.5,392.5C 443.866,349.798 447.866,306.798 444.5,263.5C 444.904,258.654 447.237,255.32 451.5,253.5 Z"/></g>
<g><path style="opacity:0.941" fill="#000000" d="M 343.5,320.5 C 351.571,318.747 356.238,321.914 357.5,330C 350.384,373.686 335.55,414.519 313,452.5C 310.081,458.025 305.581,459.858 299.5,458C 296.297,456.271 294.297,453.604 293.5,450C 302.969,432.227 311.802,414.06 320,395.5C 328.981,372.889 335.314,349.556 339,325.5C 340.025,323.313 341.525,321.646 343.5,320.5 Z"/></g>
<g><path style="opacity:0.937" fill="#000000" d="M 180.5,321.5 C 188.199,320.006 192.866,323.006 194.5,330.5C 187.327,358.501 172.327,381.334 149.5,399C 145.063,401.899 140.397,402.232 135.5,400C 132.682,396.662 131.849,392.829 133,388.5C 143.314,379.851 152.648,370.184 161,359.5C 168.061,348.662 173.394,336.995 177,324.5C 178.145,323.364 179.312,322.364 180.5,321.5 Z"/></g>
<g><path style="opacity:0.937" fill="#000000" d="M 387.5,372.5 C 394.225,372.559 398.225,375.892 399.5,382.5C 392.436,407.297 382.603,430.964 370,453.5C 364.677,459.689 359.01,460.022 353,454.5C 351,451.167 351,447.833 353,444.5C 364.492,423.505 373.825,401.505 381,378.5C 382.494,375.686 384.66,373.686 387.5,372.5 Z"/></g>
<g><path style="opacity:0.985" fill="#000000" d="M 53.5,407.5 C 64.5103,405.587 72.3436,409.587 77,419.5C 77.0375,438.565 77.7042,457.565 79,476.5C 80.1711,477.893 81.6711,478.727 83.5,479C 101.5,479.333 119.5,479.667 137.5,480C 147.575,484.65 151.408,492.484 149,503.5C 147.167,509.333 143.333,513.167 137.5,515C 116.5,515.667 95.5,515.667 74.5,515C 57,510.833 46.1667,500 42,482.5C 41.3333,461.5 41.3333,440.5 42,419.5C 44.0188,413.65 47.8522,409.65 53.5,407.5 Z"/></g>
<g><path style="opacity:0.984" fill="#000000" d="M 509.5,407.5 C 520.51,405.587 528.344,409.587 533,419.5C 533.667,440.5 533.667,461.5 533,482.5C 528.833,500 518,510.833 500.5,515C 479.5,515.667 458.5,515.667 437.5,515C 427.425,510.35 423.592,502.516 426,491.5C 427.833,485.667 431.667,481.833 437.5,480C 455.5,479.667 473.5,479.333 491.5,479C 493.329,478.727 494.829,477.893 496,476.5C 497.296,457.565 497.962,438.565 498,419.5C 500.019,413.65 503.852,409.65 509.5,407.5 Z"/></g>
</svg>
