<?xml version="1.0" encoding="UTF-8"?>
<!DOCTYPE svg PUBLIC "-//W3C//DTD SVG 1.1//EN" "http://www.w3.org/Graphics/SVG/1.1/DTD/svg11.dtd">
<svg viewBox="0 0 512 512" xmlns="http://www.w3.org/2000/svg" version="1.1" width="512px" height="512px" style="shape-rendering:geometricPrecision; text-rendering:geometricPrecision; image-rendering:optimizeQuality; fill-rule:evenodd; clip-rule:evenodd" xmlns:xlink="http://www.w3.org/1999/xlink">
<g><path style="opacity:0.963" fill="#000000" d="M 255.5,-0.5 C 263.167,-0.5 270.833,-0.5 278.5,-0.5C 379.371,12.3469 450.871,65.0136 493,157.5C 502.497,181.819 508.663,206.819 511.5,232.5C 511.5,247.833 511.5,263.167 511.5,278.5C 506.775,325.78 490.441,368.613 462.5,407C 474.679,406.249 486.845,405.082 499,403.5C 500.523,412.939 501.69,422.439 502.5,432C 502.167,432.833 501.833,433.667 501.5,434.5C 471.557,437.586 441.557,440.252 411.5,442.5C 409.298,412.576 406.632,382.743 403.5,353C 412.502,351.315 421.668,350.148 431,349.5C 432.167,349.833 433.333,350.167 434.5,350.5C 435.615,362.626 437.115,374.626 439,386.5C 483.556,320.519 492.556,249.852 466,174.5C 433.223,96.6847 375.389,49.518 292.5,33C 280.569,31.2034 268.569,30.2034 256.5,30C 255.514,19.9158 255.181,9.74914 255.5,-0.5 Z"/></g>
<g><path style="opacity:0.963" fill="#000000" d="M 255.5,511.5 C 247.833,511.5 240.167,511.5 232.5,511.5C 143.853,500.61 76.6868,456.943 31,380.5C 13.7076,348.465 3.20759,314.465 -0.5,278.5C -0.5,263.167 -0.5,247.833 -0.5,232.5C 4.14846,185.721 20.1485,143.221 47.5,105C 35.5647,104.874 23.7313,105.707 12,107.5C 10.3388,97.2368 9.1721,86.9035 8.5,76.5C 38.7988,73.5584 69.1322,70.8917 99.5,68.5C 101.702,98.4237 104.368,128.257 107.5,158C 98.4983,159.685 89.3316,160.852 80,161.5C 78.8333,161.167 77.6667,160.833 76.5,160.5C 75.3851,148.374 73.8851,136.374 72,124.5C 27.4441,190.483 18.4441,261.15 45,336.5C 76.886,412.381 133.053,459.214 213.5,477C 227.043,479.579 240.71,480.912 254.5,481C 255.486,491.084 255.819,501.251 255.5,511.5 Z"/></g>
<g><path style="opacity:0.964" fill="#000000" d="M 240.5,104.5 C 250.5,104.5 260.5,104.5 270.5,104.5C 270.181,114.749 270.514,124.916 271.5,135C 286.315,136.994 300.315,141.494 313.5,148.5C 319.434,140.288 325.6,132.288 332,124.5C 340.267,129.763 348.267,135.43 356,141.5C 356.315,142.908 355.982,144.241 355,145.5C 349.705,152.596 344.539,159.762 339.5,167C 349.919,177.999 358.752,190.165 366,203.5C 375.623,199.803 385.456,196.803 395.5,194.5C 398.092,203.944 401.092,213.277 404.5,222.5C 395.131,226.623 385.464,229.957 375.5,232.5C 376.833,247.833 376.833,263.167 375.5,278.5C 385.464,281.043 395.131,284.377 404.5,288.5C 401.092,297.723 398.092,307.056 395.5,316.5C 385.456,314.197 375.623,311.197 366,307.5C 358.752,320.835 349.919,333.001 339.5,344C 344.539,351.238 349.705,358.404 355,365.5C 355.982,366.759 356.315,368.092 356,369.5C 348.267,375.57 340.267,381.237 332,386.5C 325.6,378.712 319.434,370.712 313.5,362.5C 300.315,369.506 286.315,374.006 271.5,376C 270.514,386.084 270.181,396.251 270.5,406.5C 260.5,406.5 250.5,406.5 240.5,406.5C 240.819,396.251 240.486,386.084 239.5,376C 224.685,374.006 210.685,369.506 197.5,362.5C 191.566,370.712 185.4,378.712 179,386.5C 170.733,381.237 162.733,375.57 155,369.5C 154.685,368.092 155.018,366.759 156,365.5C 161.295,358.404 166.461,351.238 171.5,344C 161.081,333.001 152.248,320.835 145,307.5C 135.377,311.197 125.544,314.197 115.5,316.5C 112.908,307.056 109.908,297.723 106.5,288.5C 115.869,284.377 125.536,281.043 135.5,278.5C 134.167,263.167 134.167,247.833 135.5,232.5C 125.536,229.957 115.869,226.623 106.5,222.5C 109.908,213.277 112.908,203.944 115.5,194.5C 125.544,196.803 135.377,199.803 145,203.5C 152.248,190.165 161.081,177.999 171.5,167C 166.461,159.762 161.295,152.596 156,145.5C 155.018,144.241 154.685,142.908 155,141.5C 162.733,135.43 170.733,129.763 179,124.5C 185.4,132.288 191.566,140.288 197.5,148.5C 210.685,141.494 224.685,136.994 239.5,135C 240.486,124.916 240.819,114.749 240.5,104.5 Z M 254.5,164.5 C 293.966,166.304 322.133,184.971 339,220.5C 354.024,265.42 342.857,302.253 305.5,331C 272.167,351.667 238.833,351.667 205.5,331C 168.143,302.253 156.976,265.42 172,220.5C 188.608,185.716 216.108,167.049 254.5,164.5 Z M 248.5,225.5 C 266.778,223.631 278.944,231.298 285,248.5C 287.359,266.797 279.859,278.963 262.5,285C 244.203,287.359 232.037,279.859 226,262.5C 223.829,244.16 231.329,231.827 248.5,225.5 Z"/></g>
<g><path style="opacity:0.96" fill="#000000" d="M 244.5,194.5 C 279.73,191.512 303.23,206.512 315,239.5C 321.312,272.37 309.812,296.536 280.5,312C 244.502,323.677 217.335,313.177 199,280.5C 187.323,244.502 197.823,217.335 230.5,199C 235.254,197.358 239.921,195.858 244.5,194.5 Z M 248.5,225.5 C 231.329,231.827 223.829,244.16 226,262.5C 232.037,279.859 244.203,287.359 262.5,285C 279.859,278.963 287.359,266.797 285,248.5C 278.944,231.298 266.778,223.631 248.5,225.5 Z"/></g>
</svg>
