<?xml version="1.0" encoding="UTF-8"?>
<!DOCTYPE svg PUBLIC "-//W3C//DTD SVG 1.1//EN" "http://www.w3.org/Graphics/SVG/1.1/DTD/svg11.dtd">
<svg viewBox="0 0 700 700" xmlns="http://www.w3.org/2000/svg" version="1.1" width="700px" height="700px" style="shape-rendering:geometricPrecision; text-rendering:geometricPrecision; image-rendering:optimizeQuality; fill-rule:evenodd; clip-rule:evenodd" xmlns:xlink="http://www.w3.org/1999/xlink">
<g><path style="opacity:0.966" fill="#000000" d="M 557.5,103.5 C 566.989,102.539 575.655,104.705 583.5,110C 590.333,116.833 597.167,123.667 604,130.5C 610.517,141.782 611.184,153.449 606,165.5C 599.031,173.47 591.698,181.136 584,188.5C 564.126,168.96 544.626,149.126 525.5,129C 533.777,117.194 544.444,108.694 557.5,103.5 Z"/></g>
<g><path style="opacity:0.937" fill="#000000" d="M 504.5,148.5 C 524.749,167.247 544.582,186.58 564,206.5C 564.667,207.5 564.667,208.5 564,209.5C 557.833,215.667 551.667,221.833 545.5,228C 544.5,228.667 543.5,228.667 542.5,228C 523.333,208.833 504.167,189.667 485,170.5C 484.333,169.833 484.333,169.167 485,168.5C 491.703,161.965 498.203,155.298 504.5,148.5 Z"/></g>
<g><path style="opacity:0.964" fill="#000000" d="M 88.5,167.5 C 182.833,167.5 277.167,167.5 371.5,167.5C 371.5,177.167 371.5,186.833 371.5,196.5C 277.167,196.5 182.833,196.5 88.5,196.5C 88.5,186.833 88.5,177.167 88.5,167.5 Z"/></g>
<g><path style="opacity:0.979" fill="#000000" d="M 463.5,189.5 C 464.552,189.351 465.552,189.517 466.5,190C 485.833,209.333 505.167,228.667 524.5,248C 486.167,286.333 447.833,324.667 409.5,363C 407.33,364.586 404.996,365.92 402.5,367C 377.833,373.167 353.167,379.333 328.5,385.5C 327.833,385.167 327.167,384.833 326.5,384.5C 332.303,363.924 337.803,343.257 343,322.5C 344.405,316.618 346.405,310.951 349,305.5C 387.007,266.66 425.174,227.993 463.5,189.5 Z"/></g>
<g><path style="opacity:0.963" fill="#000000" d="M 88.5,267.5 C 145.167,267.5 201.833,267.5 258.5,267.5C 258.5,277.167 258.5,286.833 258.5,296.5C 201.833,296.5 145.167,296.5 88.5,296.5C 88.5,286.833 88.5,277.167 88.5,267.5 Z"/></g>
<g><path style="opacity:0.931" fill="#000000" d="M 88.5,366.5 C 145.167,366.5 201.833,366.5 258.5,366.5C 258.5,376.5 258.5,386.5 258.5,396.5C 201.833,396.5 145.167,396.5 88.5,396.5C 88.5,386.5 88.5,376.5 88.5,366.5 Z"/></g>
<g><path style="opacity:0.966" fill="#000000" d="M 88.5,466.5 C 197.5,466.5 306.5,466.5 415.5,466.5C 415.5,476.167 415.5,485.833 415.5,495.5C 306.5,495.5 197.5,495.5 88.5,495.5C 88.5,485.833 88.5,476.167 88.5,466.5 Z"/></g>
</svg>
