<?xml version="1.0" encoding="UTF-8"?>
<!DOCTYPE svg PUBLIC "-//W3C//DTD SVG 1.1//EN" "http://www.w3.org/Graphics/SVG/1.1/DTD/svg11.dtd">
<svg viewBox="0 0 512 512" xmlns="http://www.w3.org/2000/svg" version="1.1" width="512px" height="512px" style="shape-rendering:geometricPrecision; text-rendering:geometricPrecision; image-rendering:optimizeQuality; fill-rule:evenodd; clip-rule:evenodd" xmlns:xlink="http://www.w3.org/1999/xlink">
<g><path style="opacity:0.99" fill="#000000" d="M 251.5,41.5 C 257.189,41.0891 262.522,42.2558 267.5,45C 279.5,54.3333 291.5,63.6667 303.5,73C 319.349,71.6417 335.182,69.8084 351,67.5C 362.053,67.6952 369.386,73.0285 373,83.5C 378.057,96.6139 383.39,109.614 389,122.5C 404.646,128.606 420.146,135.106 435.5,142C 440.867,146.755 443.533,152.755 443.5,160C 441.192,175.818 439.358,191.651 438,207.5C 447.333,219.5 456.667,231.5 466,243.5C 470.667,251.5 470.667,259.5 466,267.5C 456.667,279.5 447.333,291.5 438,303.5C 439.358,319.349 441.192,335.182 443.5,351C 443.305,362.053 437.971,369.386 427.5,373C 414.833,378 402.167,383 389.5,388C 382.809,403.068 376.309,418.234 370,433.5C 365.636,440.411 359.302,443.744 351,443.5C 335.182,441.192 319.349,439.358 303.5,438C 291.5,447.333 279.5,456.667 267.5,466C 259.5,470.667 251.5,470.667 243.5,466C 231.5,456.667 219.5,447.333 207.5,438C 191.651,439.358 175.818,441.192 160,443.5C 148.947,443.305 141.614,437.971 138,427.5C 133,414.833 128,402.167 123,389.5C 107.218,382.679 91.3846,375.846 75.5,369C 70.1335,364.245 67.4668,358.245 67.5,351C 69.8084,335.182 71.6417,319.349 73,303.5C 63.6667,291.5 54.3333,279.5 45,267.5C 40.3333,259.5 40.3333,251.5 45,243.5C 54.3333,231.5 63.6667,219.5 73,207.5C 71.6417,191.651 69.8084,175.818 67.5,160C 67.6952,148.947 73.0285,141.614 83.5,138C 96.1667,133 108.833,128 121.5,123C 128.321,107.218 135.154,91.3846 142,75.5C 146.755,70.1335 152.755,67.4668 160,67.5C 175.818,69.8084 191.651,71.6417 207.5,73C 218.787,64.7144 229.787,56.0478 240.5,47C 243.99,44.588 247.657,42.7547 251.5,41.5 Z M 313.5,192.5 C 328.992,190.829 337.992,197.662 340.5,213C 340.077,216.269 339.244,219.436 338,222.5C 307.861,253.639 277.361,284.472 246.5,315C 237.622,319.871 228.955,319.537 220.5,314C 204.638,298.471 189.138,282.638 174,266.5C 168.369,255.194 170.535,245.694 180.5,238C 189.255,233.068 197.588,233.735 205.5,240C 214.833,249.333 224.167,258.667 233.5,268C 234.167,268.667 234.833,268.667 235.5,268C 259.5,244 283.5,220 307.5,196C 309.432,194.541 311.432,193.375 313.5,192.5 Z"/></g>
</svg>
