<?xml version="1.0" encoding="UTF-8"?>
<!DOCTYPE svg PUBLIC "-//W3C//DTD SVG 1.1//EN" "http://www.w3.org/Graphics/SVG/1.1/DTD/svg11.dtd">
<svg viewBox="0 0 512 512" xmlns="http://www.w3.org/2000/svg" version="1.1" width="512px" height="512px" style="shape-rendering:geometricPrecision; text-rendering:geometricPrecision; image-rendering:optimizeQuality; fill-rule:evenodd; clip-rule:evenodd" xmlns:xlink="http://www.w3.org/1999/xlink">
<g><path style="opacity:0.982" fill="#000000" d="M 232.5,-0.5 C 247.833,-0.5 263.167,-0.5 278.5,-0.5C 378.271,12.4486 449.438,64.4486 492,155.5C 502.136,180.379 508.636,206.046 511.5,232.5C 511.5,246.5 511.5,260.5 511.5,274.5C 511.374,295.126 501.041,305.626 480.5,306C 469.396,304.37 462.229,298.204 459,287.5C 461.147,259.545 459.314,231.879 453.5,204.5C 421.167,204.5 388.833,204.5 356.5,204.5C 357.131,219.165 357.798,233.832 358.5,248.5C 360.168,267.816 351.502,278.816 332.5,281.5C 321.017,281.175 312.851,275.841 308,265.5C 306.401,245.199 304.901,224.866 303.5,204.5C 271.493,204.167 239.493,204.5 207.5,205.5C 203.683,238.785 203.516,272.118 207,305.5C 225.427,306.327 243.927,306.827 262.5,307C 277.255,312.331 283.422,322.831 281,338.5C 278.322,347.178 272.822,353.345 264.5,357C 248.22,358.273 231.886,358.94 215.5,359C 223.531,394.226 236.698,427.392 255,458.5C 264.756,459.32 274.59,459.82 284.5,460C 298.861,462.711 306.528,471.378 307.5,486C 306.332,498.559 299.999,507.059 288.5,511.5C 269.833,511.5 251.167,511.5 232.5,511.5C 132.727,498.549 61.5605,446.549 19,355.5C 8.86392,330.621 2.36392,304.954 -0.5,278.5C -0.5,263.167 -0.5,247.833 -0.5,232.5C 12.4486,132.729 64.4486,61.5622 155.5,19C 180.379,8.86392 206.046,2.36392 232.5,-0.5 Z M 254.5,53.5 C 256.796,55.4006 258.629,57.7339 260,60.5C 275.939,89.4798 287.439,120.146 294.5,152.5C 268.5,152.5 242.5,152.5 216.5,152.5C 223.666,117.329 236.332,84.329 254.5,53.5 Z M 319.5,61.5 C 367.444,78.6175 404.777,108.784 431.5,152C 403.827,152.833 376.161,152.667 348.5,151.5C 342.032,120.431 332.366,90.4314 319.5,61.5 Z M 187.5,62.5 C 188.675,62.281 189.675,62.6143 190.5,63.5C 177.547,92.0247 168.214,121.691 162.5,152.5C 134.831,152.667 107.165,152.5 79.5,152C 105.557,110.142 141.557,80.3088 187.5,62.5 Z M 57.5,204.5 C 89.8333,204.5 122.167,204.5 154.5,204.5C 151.833,238.5 151.833,272.5 154.5,306.5C 122.167,306.5 89.8333,306.5 57.5,306.5C 49.5,272.5 49.5,238.5 57.5,204.5 Z M 79.5,359.5 C 106.995,358.502 134.662,358.169 162.5,358.5C 168.316,389.448 177.65,419.281 190.5,448C 154.157,436.346 123.657,415.846 99,386.5C 91.9886,377.786 85.4886,368.786 79.5,359.5 Z"/></g>
<g><path style="opacity:0.978" fill="#000000" d="M 330.5,322.5 C 333.85,322.335 337.183,322.502 340.5,323C 389.5,345.333 438.5,367.667 487.5,390C 493.794,396.694 494.127,403.694 488.5,411C 472.5,419 456.5,427 440.5,435C 438.667,436.833 436.833,438.667 435,440.5C 427,456.5 419,472.5 411,488.5C 400.246,495.573 392.246,493.24 387,481.5C 365.941,434.381 344.607,387.381 323,340.5C 320.856,332.465 323.356,326.465 330.5,322.5 Z"/></g>
</svg>
